# xmcd CD database file
# Copyright (C) 1997 Ti Kan
#
# Track frame offsets:
#  150
#  5919
#  24111
#  35613
#  58259
#  78595
#  103949
#  123555
#  140777
#  162300
#  174795
#  193122
#
# Disc length: 2649 seconds
#
# Revision: 1
# Processed by: cddbd v1.4b41PL1 Copyright (c) Steve Scherf et al.
# Submitted via: CDWizzard Release:4.23
#
DISCID=a70a570c
DTITLE=Ja'a - Ja'a
DYEAR=1900
DGENRE=
TTITLE0=Intro
TTITLE1=Stevie Wonderama
TTITLE2=The Way You Look Tonight
TTITLE3=For The Thought Of You
TTITLE4=Evening Without You
TTITLE5=It's You
TTITLE6=Nandito Ako
TTITLE7=Lean On Me
TTITLE8=Sa Ala-Ala Mo
TTITLE9=Stand By Me
TTITLE10=I Heard It Through The Grapevine
TTITLE11=Outro
EXTD=
EXTT0=
EXTT1=
EXTT2=
EXTT3=
EXTT4=
EXTT5=
EXTT6=
EXTT7=
EXTT8=
EXTT9=
EXTT10=
EXTT11=
PLAYORDER=
